<svg id="Layer_1" data-name="Layer 1" xmlns="http://www.w3.org/2000/svg" viewBox="0 0 46.03 209.69"><path d="M31,254.47a14.54,14.54,0,0,1-10.3-4.26,14.1,14.1,0,0,1,0-20.73A14.53,14.53,0,0,1,31,225.23a14.63,14.63,0,0,1,14.7,14.54,14.32,14.32,0,0,1-4.22,10.34A14.14,14.14,0,0,1,31,254.47Zm-7-42.32-.1-3.46c-.29-10.09-.39-20.24-.3-30.19s.35-19.71.74-29.06.91-18.38,1.55-26.93,1.3-16.57,2-23.88c1.66-17.27,3.69-33.8,6-49.16l.72-4.69L62.14,54,60.4,58C56,68.05,52.11,80.53,48.77,95.06a462.56,462.56,0,0,0-8.14,47.37C38.23,161.3,37,183.76,37,209.16v4.48Z" transform="translate(-16.11 -44.78)"/></svg>