<svg id="Layer_1" data-name="Layer 1" xmlns="http://www.w3.org/2000/svg" viewBox="0 0 643.48 311.52"><path d="M-208.81,318.87A79.56,79.56,0,0,1-240,312.55a72,72,0,0,1-25.65-18.3l-2.58-2.87,9.83-9.48,2.78,3a61.28,61.28,0,0,0,21,15,63.89,63.89,0,0,0,25.51,5.24,53.2,53.2,0,0,0,18.38-2.9,41,41,0,0,0,13.29-7.86,43.34,43.34,0,0,0,9.18-11.87,70.52,70.52,0,0,0,5.88-15.45,113,113,0,0,0,3-18c.58-6.35.87-12.85.87-19.35,0-2-.12-5-.36-9s-.54-8.63-.88-13.9-.73-11-1.17-17.34c-.34-4.84-.66-9.79-1-14.77-2.52.67-4.83,1.35-6.91,2-3.28,1.08-6,2.1-8.15,3a63.85,63.85,0,0,0-6.55,3.06l-4.11,2.26L-192,172.63l1.79-1.8c.52-.52,1-.79,3.24-1.92,1.45-.73,3.46-1.63,5.95-2.67s5.62-2.2,9.22-3.41c2.75-.91,5.84-1.83,9.22-2.75-.37-6.26-.62-12.61-.75-18.93-.15-7.37-.22-14.51-.22-21.25a215.07,215.07,0,0,1,2.92-37.55,169.77,169.77,0,0,1,5.4-22.11c-8.3,1.19-15.94,2.43-22.79,3.68a131.26,131.26,0,0,0-22,5.89,65.41,65.41,0,0,0-16.36,8.76A46.71,46.71,0,0,0-228.1,91.66l-1.73,2.83-12.88-4.87,2.29-4.06a56.94,56.94,0,0,1,17.19-19.28,88.64,88.64,0,0,1,21.94-10.82,148,148,0,0,1,25-5.87c8.47-1.25,17.21-2.63,26-4.09l.33-.06h.48a88.5,88.5,0,0,1,11.07-17.39,76.79,76.79,0,0,1,12.53-12.21,45.27,45.27,0,0,1,11.61-6.57,27.42,27.42,0,0,1,8.73-1.91c4.85,0,8.69,1.48,11.43,4.42a13.64,13.64,0,0,1,4,9.39A22.44,22.44,0,0,1-95,35.36a43.11,43.11,0,0,1-11.23,9.87,80.14,80.14,0,0,1-14.1,6.86c-4.2,1.57-8.29,2.89-12.19,3.92a122.18,122.18,0,0,0-4.82,19.58,156.49,156.49,0,0,0-2,25.71c0,8.76.29,18.12.87,27.81.51,8.49,1.09,17.18,1.74,25.9,2.79-.3,5.7-.56,8.68-.79,4.54-.35,9.4-.53,14.45-.53,2.57,0,6,.08,10.17.23s8.45.32,12.85.51,8.53.37,12.43.51,6.84.22,8.93.22c3.59,0,7,0,10.21-.15,1.84,0,3.63-.12,5.34-.21a228.43,228.43,0,0,1,8.14-55.53A311.81,311.81,0,0,1-23.86,43.41l1.74-3.49,13.38,6.27-3.43,3.44c-.18.52-.5,1.5-1.07,3.34-.86,2.77-1.95,6.64-3.25,11.49s-2.76,10.78-4.29,17.45-3,14-4.27,21.94-2.4,16.38-3.26,25.23c-.76,7.74-1.19,15.73-1.28,23.79q3.47-.48,6.2-1c2.92-.56,5.3-1.1,7.07-1.6,2.21-.63,3.29-1,3.81-1.2a7.78,7.78,0,0,1,2.92-.79h2.83l3.93,11.18-2.8,1.68c-.53.31-1.18.7-7.89,2.67a116.37,116.37,0,0,1-16,3.1c.11,3.46.27,7.22.49,11.23.29,5.42.65,11.06,1.09,16.76s1,11.49,1.67,17.19,1.45,11.2,2.31,16.36,1.86,9.71,3,13.81A55.69,55.69,0,0,0-17.44,252l1.75,3.48-5.72,3v1.59l-4,0c-2.33,0-3-1.16-5.1-4.57-1.19-2-2.66-4.76-4.49-8.53s-3.76-8.27-5.85-13.63a176.71,176.71,0,0,1-5.92-18.51,218.73,218.73,0,0,1-4.7-22.9,200.58,200.58,0,0,1-2.12-22.84c-2.1.12-4.24.2-6.4.22-3.51.05-7.24.08-11.41.08-2.39,0-5.22-.08-8.39-.23s-6.4-.31-9.78-.51-6.79-.37-10-.51-6.32-.22-9-.22c-5.72,0-11.19.2-16.26.58-3.68.28-7.26.64-10.66,1.07.55,7.15,1,14.26,1.32,21.19.39,8.21.59,16.33.59,24.14A264.07,264.07,0,0,1-135,242a145.36,145.36,0,0,1-4.59,24.56,92,92,0,0,1-8.82,21.13,61.54,61.54,0,0,1-14.1,16.68,60.81,60.81,0,0,1-20.06,10.75A85.6,85.6,0,0,1-208.81,318.87Zm104.15-297.8c-3.74,0-7.76,2.16-11.94,6.42a54.36,54.36,0,0,0-8.56,12c1.08-.39,2.16-.79,3.23-1.2a55.59,55.59,0,0,0,9.83-4.91,24.63,24.63,0,0,0,6.31-5.65,9.09,9.09,0,0,0,2-5.64,1.48,1.48,0,0,0-.42-.84C-104.33,21.11-104.36,21.07-104.66,21.07Z" transform="translate(268.27 -7.36)"/><path d="M44,246.07a44,44,0,0,1-15.78-2.9,37.51,37.51,0,0,1-13.53-8.93,43,43,0,0,1-9.14-14.77,57,57,0,0,1-3.34-20.32,72,72,0,0,1,4.06-24.9,62.83,62.83,0,0,1,10.42-18.61A46.77,46.77,0,0,1,31.22,143.8a35.66,35.66,0,0,1,16.17-4.17c7.22,0,13.08,2.47,17.42,7.35s6.36,10.86,6.36,18.19a39.11,39.11,0,0,1-3.45,16.54,40.4,40.4,0,0,1-21.83,20.85,39.85,39.85,0,0,1-15,2.93A57.37,57.37,0,0,1,24,205.1l-.19,0a46.46,46.46,0,0,0,2.56,9.44,30.86,30.86,0,0,0,5.81,9.6,21.65,21.65,0,0,0,7.47,5.33,22.23,22.23,0,0,0,8.64,1.74,19.72,19.72,0,0,0,10.16-2.68,38.88,38.88,0,0,0,9.28-7.64,66.33,66.33,0,0,0,8.08-11.26,139.88,139.88,0,0,0,6.76-13.31c2-4.54,3.82-9,5.39-13.37s3.06-8.4,4.34-11.82l1.25-3.38,13.59,3.49-1.66,4.21c-1.26,3.19-2.75,7.11-4.44,11.65s-3.76,9.58-6,14.66a142.74,142.74,0,0,1-8.14,15.52,79.36,79.36,0,0,1-10.79,14.19,53.55,53.55,0,0,1-14,10.45A39,39,0,0,1,44,246.07ZM22.61,191c.53.11,1.15.22,1.86.32a54.82,54.82,0,0,0,7.83.47,22,22,0,0,0,8.88-1.94,27.83,27.83,0,0,0,8.2-5.51,27.42,27.42,0,0,0,5.88-8.39,24.81,24.81,0,0,0,2.2-10.48,17.19,17.19,0,0,0-.72-5,11,11,0,0,0-1.92-3.77,9.33,9.33,0,0,0-3-2.46,8.8,8.8,0,0,0-4.1-.88,15,15,0,0,0-8.42,2.78,30.47,30.47,0,0,0-8.2,8.37,49.41,49.41,0,0,0-6.15,13.15A53.19,53.19,0,0,0,22.61,191Z" transform="translate(268.27 -7.36)"/><path d="M121.37,241.53a21.52,21.52,0,0,1-15-5.59,38.53,38.53,0,0,1-9.18-13.29A81.75,81.75,0,0,1,92,204.93c-1.19-6.39-2.1-13-2.69-19.63s-1-13.16-1-19.41-.15-11.7-.15-16.55c0-9,.37-18,1.11-26.84a250.34,250.34,0,0,1,3.43-25.61,204.31,204.31,0,0,1,5.6-22.79,94.24,94.24,0,0,1,7.89-18.66,45.85,45.85,0,0,1,10.47-12.9,22.15,22.15,0,0,1,23.07-3.3,17.49,17.49,0,0,1,6.44,5.13,20.62,20.62,0,0,1,3.47,7.19,31.13,31.13,0,0,1,1,8A103,103,0,0,1,148.36,80a204.1,204.1,0,0,1-5.68,21.52c-2.32,7.2-5,14.54-8,21.83s-6,14.28-9.07,20.94-6.06,13.06-9,19c-2.81,5.71-5.21,10.64-7.31,15,.39,7.44,1,14.25,2,20.27a103.62,103.62,0,0,0,3.51,15.85,27.61,27.61,0,0,0,4.53,9.13c1.69,2,3.07,2.23,4,2.23,1.86,0,3.86-1,6-3a49.24,49.24,0,0,0,8-10.7,161.76,161.76,0,0,0,8.7-17.57c3-6.93,6.06-14.79,9.14-23.35l1.23-3.43,13.46,3.45-1.43,4.11c-2.35,6.75-5,14-8,21.46a155.43,155.43,0,0,1-10.07,21.12,74.56,74.56,0,0,1-12.48,16.4C132.84,239.08,127.3,241.53,121.37,241.53ZM131.91,51c-2.3,0-4.77,1.87-7.33,5.54-3.11,4.45-5.88,10.83-8.23,19a196.14,196.14,0,0,0-5.81,30.06,315.81,315.81,0,0,0-2.16,38.4v4.43l.43-.93c2.7-5.74,5.42-11.77,8.08-17.9s5.22-12.41,7.63-18.67,4.53-12.43,6.35-18.41,3.28-11.7,4.38-17.06a72.75,72.75,0,0,0,1.6-14.22,29.44,29.44,0,0,0-.32-4.11,13.37,13.37,0,0,0-1-3.56,5.23,5.23,0,0,0-1.54-2A3.3,3.3,0,0,0,131.91,51Z" transform="translate(268.27 -7.36)"/><path d="M184.36,241.53a21.54,21.54,0,0,1-15-5.59,38.51,38.51,0,0,1-9.17-13.29,82.3,82.3,0,0,1-5.25-17.72c-1.18-6.39-2.09-13-2.68-19.63s-.95-13.16-1-19.41-.15-11.7-.15-16.55c0-9,.37-18,1.11-26.84a247.59,247.59,0,0,1,3.43-25.61,204.31,204.31,0,0,1,5.6-22.79,94.24,94.24,0,0,1,7.89-18.66,46,46,0,0,1,10.46-12.9,21.56,21.56,0,0,1,13.89-5.15,21.32,21.32,0,0,1,9.19,1.85,17.38,17.38,0,0,1,6.43,5.13,20.55,20.55,0,0,1,3.48,7.19,31.13,31.13,0,0,1,1,8A103.09,103.09,0,0,1,211.35,80a204.1,204.1,0,0,1-5.68,21.52c-2.32,7.2-5,14.54-8,21.83s-6,14.28-9.07,20.94-6.07,13.06-9,19c-2.8,5.71-5.2,10.64-7.3,15,.39,7.44,1,14.25,2,20.27a102.71,102.71,0,0,0,3.51,15.85,27.42,27.42,0,0,0,4.53,9.13c1.68,2,3.07,2.23,4,2.23,1.86,0,3.86-1,6-3a48.92,48.92,0,0,0,8-10.7A159.85,159.85,0,0,0,209,194.49c3-6.93,6.06-14.79,9.14-23.35l1.23-3.43,13.46,3.45-1.43,4.11c-2.35,6.75-5,14-8,21.46a156,156,0,0,1-10.07,21.12,74.56,74.56,0,0,1-12.48,16.4C195.83,239.08,190.29,241.53,184.36,241.53ZM194.9,51c-2.31,0-4.77,1.87-7.34,5.54-3.1,4.45-5.87,10.83-8.23,19a197.45,197.45,0,0,0-5.8,30.06,315.71,315.71,0,0,0-2.17,38.4v4.43l.44-.93c2.7-5.74,5.42-11.77,8.08-17.9s5.22-12.41,7.63-18.67,4.53-12.43,6.35-18.41,3.28-11.7,4.37-17.06a72.06,72.06,0,0,0,1.61-14.22,28.19,28.19,0,0,0-.33-4.11,13.74,13.74,0,0,0-1-3.56,5.23,5.23,0,0,0-1.54-2A3.3,3.3,0,0,0,194.9,51Z" transform="translate(268.27 -7.36)"/><path d="M253.64,245.48a39.13,39.13,0,0,1-14.76-3,38.24,38.24,0,0,1-13.41-9.3A46.74,46.74,0,0,1,216,217.65c-2.37-6.15-3.56-13.5-3.56-21.87a68.05,68.05,0,0,1,1.94-16.19,72.79,72.79,0,0,1,5.43-15,75.62,75.62,0,0,1,8.27-13.15,66.25,66.25,0,0,1,10.46-10.68l3.57-2.88,3.21,5.35A26.93,26.93,0,0,1,254,135.6a26.36,26.36,0,0,1,13.09-3.15,31.15,31.15,0,0,1,11.93,2.43,27.44,27.44,0,0,1,10.82,8.45,44.31,44.31,0,0,1,7.38,15.21c1.81,6.16,2.73,14,2.73,23.18,0,3.42-.16,6.87-.46,10.24-.11,1.21-.25,2.41-.42,3.61a22.22,22.22,0,0,0,3-1.48,30.52,30.52,0,0,0,7-5.64,39.91,39.91,0,0,0,5.52-7.72,89.61,89.61,0,0,0,4.62-9.74l1.32-3.24,13.39,3.43-1.53,4.16a68.3,68.3,0,0,1-7.57,15.09A54.35,54.35,0,0,1,315.5,201a40.65,40.65,0,0,1-10.72,6.73,45.91,45.91,0,0,1-8.92,2.72,72.3,72.3,0,0,1-5,11.82,48.42,48.42,0,0,1-8.94,12,40.73,40.73,0,0,1-12.43,8.2A40.24,40.24,0,0,1,253.64,245.48Zm-14.41-86.69a66,66,0,0,0-4.36,8.1,61.19,61.19,0,0,0-3.71,10.86,48,48,0,0,0-1.35,11.15c0,7.39.93,13.63,2.75,18.52A33.49,33.49,0,0,0,239.4,219a23.47,23.47,0,0,0,9,6,29.65,29.65,0,0,0,10.07,1.89c4.58,0,8.91-1.68,13.25-5.14A31.64,31.64,0,0,0,280,211.29a47.53,47.53,0,0,1-13.41-3.15A44.55,44.55,0,0,1,252,198.72a43.5,43.5,0,0,1-9.76-14.51,47.37,47.37,0,0,1-3.53-18.46A43.46,43.46,0,0,1,239.23,158.79Zm27.6-12.62a12.09,12.09,0,0,0-5.54,1.26,14.27,14.27,0,0,0-4.6,3.63,18.21,18.21,0,0,0-3.23,5.78,22.93,22.93,0,0,0-1.24,7.74,35.53,35.53,0,0,0,2.61,14,31.12,31.12,0,0,0,7.07,10.39,30.73,30.73,0,0,0,10.45,6.55,36.18,36.18,0,0,0,12.67,2.3,57.6,57.6,0,0,0,.82-5.87c.28-3.17.42-6.68.42-10.43a80.8,80.8,0,0,0-2.14-17.86,35.78,35.78,0,0,0-4.49-10.86,13.76,13.76,0,0,0-5.6-5A17,17,0,0,0,266.83,146.17Z" transform="translate(268.27 -7.36)"/><path d="M344,249.58a14.53,14.53,0,0,1-10.3-4.25,14.11,14.11,0,0,1,0-20.73A14.58,14.58,0,0,1,344,220.34a14.65,14.65,0,0,1,14.7,14.55,14.32,14.32,0,0,1-4.22,10.34A14.13,14.13,0,0,1,344,249.58Zm-7-42.31-.1-3.46c-.29-10.09-.39-20.25-.3-30.19s.35-19.7.74-29.06.91-18.38,1.55-26.93,1.3-16.57,2-23.88c1.66-17.27,3.69-33.81,6-49.16l.72-4.69,27.54,9.18-1.74,4c-4.37,10.08-8.29,22.56-11.63,37.09a463,463,0,0,0-8.14,47.37c-2.4,18.87-3.63,41.32-3.63,66.73v4.48Z" transform="translate(268.27 -7.36)"/></svg>