<svg id="logosandtypes_com" xmlns="http://www.w3.org/2000/svg" viewBox="0 0 150 150.2" width="48px" height="48px"><path d="M0 .2h150v150H0V.2z" fill="none"/><g><path d="M83.7 15.5H63.9c-.5 0-1 .2-1.3.5-.7.3-1.2 1.2-1.2 2v109.4H53V18c0-1.3-1-2.3-2.3-2.3h-13c-1.3 0-2.3 1-2.3 2.3v111.6c0 1.2.8 2.3 2.2 2.5s2.5-1 2.5-2.3V20.4h8.2v109.2c0 1.3 1 2.3 2.3 2.3h13.1c1.3 0 2.3-1 2.3-2.3V22.1c0-1 .8-1.8 1.8-1.8h15.8c20.8 0 36.9 16.6 36.9 37.8s-16.3 37.8-36.9 37.8h-4.5v-7h2.2c16.8 0 30.4-13.4 30.7-30 .2-17.3-14.3-31.4-31.4-31.4h-4c-1.3 0-2.3 1-2.3 2.3V42c0 .8.5 1.5 1.2 2 .3.3 1 .5 1.5.5h2.3c6.9 0 12.8 5.4 13.1 12.2C92.7 64 86.9 70 79.7 70h-2.9c-1.2 0-2.3.8-2.5 2.2-.2 1.3 1 2.5 2.3 2.5h2.5c9.6 0 17.5-7.4 17.8-16.9.3-9.9-7.7-18-17.5-18h-.7v-7.7h1.7c14.4 0 26.7 11.9 26.3 26.3 0 14.2-11.6 25.6-25.9 25.6h-4.5C75 84 74 85 74 86.3V98c0 1.3 1 2.3 2.3 2.3h6.9c23.3 0 41.8-18.6 41.8-42.5.5-23.7-18-42.3-41.3-42.3z" fill="#00b6ef"/></g></svg>